<svg xmlns="http://www.w3.org/2000/svg" width="20" height="20" viewBox="0 0 20 20">
  <g id="Group_2" data-name="Group 2" transform="translate(-547 -596)">
    <g id="Ellipse_2334" data-name="Ellipse 2334" transform="translate(547 596)" fill="#fff" stroke="#c6ccd3" stroke-width="1">
      <circle cx="10" cy="10" r="10" stroke="none"/>
      <circle cx="10" cy="10" r="9.5" fill="none"/>
    </g>
    <g id="Group_32052" data-name="Group 32052" transform="translate(160.004 -2838.969)">
      <path id="Path_339800" data-name="Path 339800" d="M242.414,172.079a.356.356,0,0,1-.252-.608l5.094-5.094a.356.356,0,1,1,.5.5l-5.094,5.094a.355.355,0,0,1-.252.1Z" transform="translate(151.969 3275.727)" fill="#132c4a" stroke="#132c4a" stroke-width="0.5"/>
      <path id="Path_339801" data-name="Path 339801" d="M247.508,172.08a.355.355,0,0,1-.252-.1l-5.094-5.094a.356.356,0,1,1,.5-.5l5.094,5.094a.356.356,0,0,1-.252.608Z" transform="translate(151.969 3275.726)" fill="#132c4a" stroke="#132c4a" stroke-width="0.5"/>
    </g>
  </g>
</svg>
