<svg id="Group_22713" data-name="Group 22713" xmlns="http://www.w3.org/2000/svg" xmlns:xlink="http://www.w3.org/1999/xlink" width="50.67" height="82" viewBox="0 0 50.67 82">
  <defs>
    <linearGradient id="linear-gradient" x1="0.5" x2="1" y2="0.738" gradientUnits="objectBoundingBox">
      <stop offset="0" stop-color="#ffa741"/>
      <stop offset="1" stop-color="#ff7541"/>
    </linearGradient>
  </defs>
  <path id="Path_2724" data-name="Path 2724" d="M-2435.49,245.864a9.538,9.538,0,0,0-13.45,0,9.537,9.537,0,0,0,0,13.449l.625.625,21.005,21.007,6.6-6.6a9.669,9.669,0,0,0,.759-12.98Z" transform="translate(2452.033 -243.09)" fill="url(#linear-gradient)"/>
  <path id="Path_2725" data-name="Path 2725" d="M-2404.17,278.807c-.192-.191-.393-.366-.6-.537-.169-.2-.344-.4-.532-.59l-8.888-8.919a12.162,12.162,0,0,1-3.568,10.186l-10.975,10.979,0,0-20.537,20.538a9.509,9.509,0,0,0,0,13.448,9.511,9.511,0,0,0,13.448,0l31.651-31.652A9.51,9.51,0,0,0-2404.17,278.807Z" transform="translate(2452.055 -244.691)" fill="url(#linear-gradient)"/>
</svg>
