<svg xmlns="http://www.w3.org/2000/svg" width="574.771" height="188.055" viewBox="0 0 574.771 188.055">
  <g id="Discover_White_Logo" data-name="Discover White Logo" transform="translate(0.002)">
    <path id="Path_339860" data-name="Path 339860" d="M18267.5,17543.855h-92.918l16.332-31.852,24.7-45.156,22.477,24.215,6-8.621-18.07-30.867,13.309-19.355c0-.07-.285-8.055-6.289-8.055a12.984,12.984,0,0,0-6.121,1.973c-.023.023-3.777,6.047-7.1,11.324-2.3,3.688-4.293,6.863-4.344,6.934l-35.852-4.789-5.8,8.664,30.746,12.07-31.371,42.512-17.187,22.4v-154.855a12.418,12.418,0,0,1,12.387-12.4h99.113a12.4,12.4,0,0,1,12.4,12.4v161.078A12.4,12.4,0,0,1,18267.5,17543.855Z" transform="translate(-18156.002 -17356.861)" fill="#ff5d5d"/>
    <path id="Path_339861" data-name="Path 339861" d="M26.793,32.7a21.3,21.3,0,0,0,6.429-.813,14.142,14.142,0,0,0,7.359-5.81,23.809,23.809,0,0,0,3.292-8.831,33.683,33.683,0,0,0,.581-5.965q0-10.574-4.2-16.422T26.716-10.985H13.044V32.7ZM5.3-17.608H28.342q11.736,0,18.2,8.327,5.771,7.514,5.771,19.25a38.353,38.353,0,0,1-3.408,16.383q-6,12.936-20.644,12.936H5.3Zm56.061,0h7.785v56.9H61.358ZM84.071,20.93a15.549,15.549,0,0,0,2.285,7.862q3.834,5.655,13.517,5.655a23.926,23.926,0,0,0,7.9-1.239q6.894-2.4,6.894-8.6,0-4.648-2.9-6.623-2.944-1.937-9.218-3.37l-7.708-1.743q-7.553-1.7-10.69-3.757Q78.726,5.553,78.726-1.534a16.4,16.4,0,0,1,5.306-12.588q5.306-4.919,15.028-4.919a26.1,26.1,0,0,1,15.2,4.319q6.255,4.319,6.255,13.808h-7.243a14.256,14.256,0,0,0-2.479-7.01q-3.525-4.454-11.968-4.454-6.817,0-9.8,2.866a8.97,8.97,0,0,0-2.982,6.662,6.505,6.505,0,0,0,3.486,6.12q2.285,1.239,10.341,3.1l7.979,1.82a24.446,24.446,0,0,1,8.908,3.6q5.422,3.989,5.422,11.581,0,9.45-6.875,13.517a30.789,30.789,0,0,1-15.977,4.067q-10.612,0-16.616-5.422-6-5.384-5.887-14.6ZM153.3-19.157q10.806,0,16.771,5.694A20.107,20.107,0,0,1,176.694-.527H169.18a15.638,15.638,0,0,0-5.093-8.715q-3.815-3.215-10.709-3.215A17.173,17.173,0,0,0,139.8-6.55q-5.171,5.907-5.171,18.107,0,9.993,4.667,16.209t13.924,6.216q8.521,0,12.975-6.546a24.893,24.893,0,0,0,3.525-9.063h7.514a25.674,25.674,0,0,1-6.662,15.067q-6.778,7.32-18.281,7.32a24.128,24.128,0,0,1-16.655-6q-8.87-7.94-8.87-24.517,0-12.588,6.662-20.644Q140.635-19.157,153.3-19.157Zm55.247,0q15.067,0,22.309,9.683,5.655,7.553,5.655,19.327,0,12.743-6.468,21.186-7.591,9.915-21.651,9.915-13.13,0-20.644-8.676-6.7-8.366-6.7-21.147,0-11.542,5.732-19.753Q194.139-19.157,208.548-19.157Zm.775,53.217q10.186,0,14.737-7.3a31.075,31.075,0,0,0,4.551-16.79q0-10.031-5.248-16.151t-14.35-6.12A18.687,18.687,0,0,0,194.6-6.24q-5.577,6.061-5.577,17.875,0,9.45,4.783,15.938T209.322,34.06Zm38.244-51.668,16.345,48.453,16.151-48.453H288.7l-20.76,56.9h-8.172l-20.721-56.9Zm46.533,0h41.482v6.972H301.613V6.638h31.411v6.584H301.613V32.511h34.549v6.778H294.1ZM370.107,8.458q5.422,0,8.579-2.169t3.157-7.824q0-6.081-4.415-8.289a14.429,14.429,0,0,0-6.313-1.162H352.29V8.458ZM344.583-17.608H370.92a26.268,26.268,0,0,1,10.729,1.9q8.017,3.641,8.017,13.44A15.113,15.113,0,0,1,387.555,6.1a15.254,15.254,0,0,1-5.906,5.229,11.639,11.639,0,0,1,5.016,3.563q1.685,2.208,1.878,7.165l.271,7.63a23.455,23.455,0,0,0,.542,4.841,4.76,4.76,0,0,0,2.479,3.486v1.278h-9.451a7.109,7.109,0,0,1-.62-1.9,36.44,36.44,0,0,1-.387-4.493l-.465-9.489q-.271-5.577-4.144-7.475a17.141,17.141,0,0,0-6.933-1.046H352.29v24.4h-7.708ZM.533,46.46H9.519L25.864,73.8,42.208,46.46h9.024l-21.5,33.967v22.929H22.029V80.427Zm79.261-1.549q15.067,0,22.309,9.683,5.655,7.553,5.655,19.327,0,12.743-6.468,21.186-7.591,9.915-21.651,9.915-13.13,0-20.644-8.676-6.7-8.366-6.7-21.147,0-11.542,5.732-19.753Q65.386,44.911,79.794,44.911Zm.775,53.217q10.186,0,14.737-7.3a31.075,31.075,0,0,0,4.551-16.79q0-10.031-5.248-16.151t-14.35-6.12a18.687,18.687,0,0,0-14.408,6.061Q60.273,63.889,60.273,75.7q0,9.45,4.783,15.938T80.569,98.128ZM122.686,46.46V81.628a20.688,20.688,0,0,0,2.324,10.3q3.447,6.2,11.619,6.2,9.8,0,13.324-6.7,1.9-3.641,1.9-9.8V46.46h7.824V78.413q0,10.5-2.827,16.151-5.19,10.3-19.6,10.3t-19.559-10.3q-2.827-5.655-2.827-16.151V46.46ZM195.44,72.526q5.422,0,8.579-2.169t3.157-7.824q0-6.081-4.415-8.289a14.429,14.429,0,0,0-6.313-1.162H177.624V72.526ZM169.916,46.46h26.337a26.267,26.267,0,0,1,10.729,1.9Q215,52,215,61.8a15.113,15.113,0,0,1-2.111,8.366,15.253,15.253,0,0,1-5.907,5.229A11.638,11.638,0,0,1,212,78.956q1.685,2.208,1.878,7.165l.271,7.63a23.453,23.453,0,0,0,.542,4.841,4.761,4.761,0,0,0,2.479,3.486v1.278h-9.451a7.112,7.112,0,0,1-.62-1.9,36.432,36.432,0,0,1-.387-4.493l-.465-9.489Q205.975,81.9,202.1,80a17.141,17.141,0,0,0-6.933-1.046H177.624v24.4h-7.708ZM28.923,108.978q10.806,0,16.771,5.694a20.107,20.107,0,0,1,6.623,12.936H44.8a15.638,15.638,0,0,0-5.093-8.715Q35.9,115.679,29,115.679a17.173,17.173,0,0,0-13.575,5.907q-5.171,5.907-5.171,18.107,0,9.993,4.667,16.209t13.924,6.216q8.521,0,12.975-6.546a24.894,24.894,0,0,0,3.525-9.063H52.86A25.675,25.675,0,0,1,46.2,161.576q-6.778,7.32-18.281,7.32a24.128,24.128,0,0,1-16.655-6q-8.87-7.94-8.87-24.517,0-12.588,6.662-20.644Q16.258,108.978,28.923,108.978Zm32.434,1.549h7.785v56.9H61.358Zm59.082,0v6.778H101.268v50.119H93.444V117.306H74.272v-6.778Zm.016,0h8.986l16.345,27.344,16.345-27.344h9.024l-21.5,33.968v22.929h-7.708V144.5Z" transform="translate(182.934 19.157)" fill="#fff"/>
    <path id="Path_339623" data-name="Path 339623" d="M2.551,185.062H-.5V0H2.551Z" transform="translate(152.776 2.345)" fill="#fff"/>
    <path id="Path_339862" data-name="Path 339862" d="M12.2,0A12.2,12.2,0,1,1,0,12.2,12.2,12.2,0,0,1,12.2,0Z" transform="translate(354.215 162.58)" fill="#ff5d5d"/>
  </g>
</svg>
