<svg xmlns="http://www.w3.org/2000/svg" width="85.756" height="42" viewBox="0 0 85.756 42">
  <g id="Group_31072" data-name="Group 31072" transform="translate(-327 -838.201)">
    <g id="Group_30794" data-name="Group 30794" transform="translate(327 838.201)">
      <path id="Path_311670" data-name="Path 311670" d="M5.505,30.969a6.214,6.214,0,0,0,.057,1.053c.038.182.135.273.288.273s.245.02.274.058a.237.237,0,0,1,.043.144c0,.135-.1.2-.317.2H.288c-.135,0-.217-.024-.245-.072A.257.257,0,0,1,0,32.5a.237.237,0,0,1,.043-.144c.029-.038.111-.058.245-.058.154,0,.249-.091.288-.273a6.214,6.214,0,0,0,.057-1.053v-19.6a6.457,6.457,0,0,0-.057-1.08c-.039-.182-.135-.274-.288-.274-.135,0-.217-.019-.245-.058A.233.233,0,0,1,0,9.812.2.2,0,0,1,.043,9.7c.029-.038.111-.057.245-.057H5.505Zm6.658-20.912a6.964,6.964,0,0,1,2.32,1.124,5.712,5.712,0,0,1,1.658,1.989,6.428,6.428,0,0,1,.635,2.983,6.452,6.452,0,0,1-.577,2.853,5.6,5.6,0,0,1-1.527,1.946,6.687,6.687,0,0,1-2.162,1.153A10.44,10.44,0,0,1,10,22.581H9.829a1.864,1.864,0,0,1-.317-.03.273.273,0,0,1-.23-.173.186.186,0,0,1,.029-.173l.144-.144a1.283,1.283,0,0,1,.317-.2,2.925,2.925,0,0,0,1.34-1.83,14.028,14.028,0,0,0,.418-3.935,12.63,12.63,0,0,0-.5-4.093,2.773,2.773,0,0,0-1.571-1.787,1.069,1.069,0,0,1-.317-.115.961.961,0,0,1-.145-.115.169.169,0,0,1-.057-.115c0-.039.029-.077.087-.115a1.2,1.2,0,0,1,.548-.115,11.666,11.666,0,0,1,2.594.418" transform="translate(0 -0.44)" fill="#9b721f"/>
      <path id="Path_311671" data-name="Path 311671" d="M25.167,30.912a8,8,0,0,0,.044,1.052c.029.183.119.274.273.274s.25.025.289.073a.218.218,0,0,1,.057.13c0,.135-.115.2-.346.2H19.95c-.135,0-.216-.019-.244-.057a.231.231,0,0,1-.044-.144.253.253,0,0,1,.044-.13c.029-.048.11-.073.244-.073.154,0,.245-.091.274-.274a8.173,8.173,0,0,0,.044-1.052V11.34a8.183,8.183,0,0,0-.044-1.052c-.029-.182-.12-.274-.274-.274-.135,0-.216-.019-.244-.058a.227.227,0,0,1-.044-.144.191.191,0,0,1,.044-.115c.029-.038.11-.057.244-.057h5.217Zm0-10.723v0Zm4.324-10.55a12.344,12.344,0,0,1,2.35.4,6.8,6.8,0,0,1,2.1.966,4.885,4.885,0,0,1,1.514,1.7,5.238,5.238,0,0,1,.576,2.551,4.329,4.329,0,0,1-.576,2.263,5.374,5.374,0,0,1-1.47,1.614,6.891,6.891,0,0,1-2,1,8.945,8.945,0,0,1-2.177.4v.058a9.443,9.443,0,0,1,2.407.533,6.417,6.417,0,0,1,2,1.168,5.169,5.169,0,0,1,1.354,1.888,6.712,6.712,0,0,1,.49,2.666q0,.923-.014,1.989t-.014,1.729a8.221,8.221,0,0,0,.058.98.944.944,0,0,0,.4.721,1.43,1.43,0,0,0,.374.2c.115.038.174.106.174.2a.17.17,0,0,1-.058.115.718.718,0,0,1-.173.115,1.1,1.1,0,0,1-.317.087q-.173.027-.361.043t-.389.014a4.841,4.841,0,0,1-3.43-1.153,4.011,4.011,0,0,1-1.24-3.084q0-1.211.014-2.22t-.014-2.1a6.607,6.607,0,0,0-.4-2.334,2.078,2.078,0,0,0-1.326-1.24.718.718,0,0,1-.461-.231.273.273,0,0,1-.058-.144c0-.018.019-.048.058-.086a.517.517,0,0,1,.144-.1,1.915,1.915,0,0,1,.288-.1,2.33,2.33,0,0,0,1.441-1.47,10.053,10.053,0,0,0,.461-3.517,9.937,9.937,0,0,0-.475-3.5,2.5,2.5,0,0,0-1.4-1.542,1.373,1.373,0,0,1-.491-.288.165.165,0,0,1-.057-.115.333.333,0,0,1,.274-.144,3.023,3.023,0,0,1,.361-.029Z" transform="translate(-0.898 -0.44)" fill="#9b721f"/>
      <path id="Path_311672" data-name="Path 311672" d="M47.155,9.78a.26.26,0,0,1-.043.13c-.029.048-.12.072-.274.072s-.25.092-.288.274a6.081,6.081,0,0,0-.058,1.053v19.6a6.067,6.067,0,0,0,.058,1.052c.038.183.134.274.288.274s.245.025.274.073a.257.257,0,0,1,.043.129c0,.135-.106.2-.317.2H41.274c-.135,0-.216-.019-.244-.058a.227.227,0,0,1-.044-.144.25.25,0,0,1,.044-.129c.029-.048.11-.073.244-.073.154,0,.25-.091.289-.274a6.2,6.2,0,0,0,.057-1.052v-19.6a6.214,6.214,0,0,0-.057-1.053c-.039-.182-.136-.274-.289-.274-.135,0-.216-.024-.244-.072a.253.253,0,0,1-.044-.13.231.231,0,0,1,.044-.144c.029-.038.11-.058.244-.058h5.564c.211,0,.317.068.317.2" transform="translate(-1.872 -0.438)" fill="#9b721f"/>
      <path id="Path_311673" data-name="Path 311673" d="M78.206,10.154V32.638H72.989c-.135,0-.217-.019-.245-.058a.227.227,0,0,1-.043-.144.253.253,0,0,1,.043-.13c.029-.048.111-.072.245-.072.153,0,.249-.092.288-.274a6.207,6.207,0,0,0,.057-1.053v-19.6a6.215,6.215,0,0,0-.057-1.053c-.039-.182-.136-.274-.288-.274-.135,0-.217-.024-.245-.072a.253.253,0,0,1-.043-.13.227.227,0,0,1,.043-.144c.029-.038.111-.058.245-.058h5.217Zm5.938,7.437a.748.748,0,0,1,.086.1.39.39,0,0,1,.029.187v5.65a1.7,1.7,0,0,1-.043.346c-.029.135-.092.2-.187.2a.163.163,0,0,1-.115-.058,1.119,1.119,0,0,1-.173-.461,3.338,3.338,0,0,0-.98-1.715A3.974,3.974,0,0,0,81,20.877a1.341,1.341,0,0,1-.331-.072.493.493,0,0,1-.158-.1.163.163,0,0,1-.058-.115.166.166,0,0,1,.058-.115,1.053,1.053,0,0,1,.461-.2,3.883,3.883,0,0,0,1.643-.865,3.655,3.655,0,0,0,1.037-1.5.554.554,0,0,1,.231-.317.278.278,0,0,1,.144-.057h.029a.324.324,0,0,0,.087.057m4.626,8.532a1.587,1.587,0,0,1,.044.318v5.966c0,.154-.106.231-.317.231H82.7a2.991,2.991,0,0,1-.533-.044c-.164-.029-.245-.091-.245-.187,0-.019.029-.048.087-.087a.484.484,0,0,1,.2-.1c.1-.03.23-.063.4-.1a6.128,6.128,0,0,0,2.263-.85,7.2,7.2,0,0,0,1.642-1.427,7.348,7.348,0,0,0,1.081-1.7,8.462,8.462,0,0,0,.576-1.7.723.723,0,0,1,.231-.461.273.273,0,0,1,.144-.058c.115,0,.187.068.216.2M87.718,9.838V15.66q0,.116-.014.318a.193.193,0,0,1-.217.2.169.169,0,0,1-.115-.057.74.74,0,0,1-.115-.159.918.918,0,0,1-.087-.331,7.5,7.5,0,0,0-.475-1.859,6.628,6.628,0,0,0-.951-1.658,6.214,6.214,0,0,0-1.369-1.283,4.79,4.79,0,0,0-1.729-.735c-.173-.038-.3-.073-.389-.1a.47.47,0,0,1-.187-.1c-.057-.038-.087-.067-.087-.086,0-.1.063-.158.188-.187a1.958,1.958,0,0,1,.447-.044H87.43c.192,0,.288.087.288.26" transform="translate(-3.321 -0.438)" fill="#9b721f"/>
      <path id="Path_311674" data-name="Path 311674" d="M86.281,0,81.4,5.721H78.918L82.44,0Z" transform="translate(-3.605)" fill="#9b721f"/>
      <path id="Path_311675" data-name="Path 311675" d="M64.094,25.9a.292.292,0,0,0-.156.014c-.108.029-.226.155-.351.378a8.364,8.364,0,0,1-.948,1.364L57.464,11.538a3.093,3.093,0,0,1-.173-1.181c.039-.249.136-.375.289-.375.211,0,.317-.067.317-.2s-.106-.2-.317-.2h-6.4c-.135,0-.216.025-.245.073a.267.267,0,0,0-.042.13.241.241,0,0,0,.042.144c.03.039.111.057.245.057.153,0,.312.12.476.361a5.52,5.52,0,0,1,.533,1.2l6.32,18.585H58.5l.436,1.264h0l.264.774.17.493a.266.266,0,0,0,.281.183h2.42a.3.3,0,0,0,.289-.2l.114-.379a.189.189,0,0,0,.032-.06l.518-1.758.259-.859,0-.01.911-3.1a1.6,1.6,0,0,0,.048-.316.213.213,0,0,0-.149-.255" transform="translate(-2.325 -0.438)" fill="#9b721f"/>
      <path id="Path_311676" data-name="Path 311676" d="M71.29,9.622a1.713,1.713,0,0,0-.345-.044H67.082q-.606,0-.634.231a.165.165,0,0,0,.057.115.724.724,0,0,0,.158.115,1.406,1.406,0,0,0,.332.115,1.811,1.811,0,0,1,.98,1.368,7.3,7.3,0,0,1,.057,2.263.763.763,0,0,0,.115.577.274.274,0,0,0,.144.115h.029a.35.35,0,0,0,.173-.086.66.66,0,0,0,.174-.188,3.578,3.578,0,0,0,.2-.36,13.513,13.513,0,0,1,1.211-2.58,3.194,3.194,0,0,1,1.037-1.08,1,1,0,0,0,.345-.26.256.256,0,0,0,.03-.115c0-.1-.068-.158-.2-.187" transform="translate(-3.035 -0.438)" fill="#9b721f"/>
    </g>
    <path id="Path_311677" data-name="Path 311677" d="M1.964-3.229a.689.689,0,0,0-.054-.291.545.545,0,0,0-.141-.19.508.508,0,0,0-.2-.1.888.888,0,0,0-.231-.03H.93V-2.6h.419a.726.726,0,0,0,.22-.035.573.573,0,0,0,.2-.109.54.54,0,0,0,.141-.193A.693.693,0,0,0,1.964-3.229Zm.1,1.73A.81.81,0,0,0,2-1.834a.631.631,0,0,0-.16-.223.614.614,0,0,0-.22-.122.812.812,0,0,0-.242-.038H.93v1.4H1.4a.812.812,0,0,0,.258-.041.587.587,0,0,0,.212-.122.563.563,0,0,0,.141-.209A.82.82,0,0,0,2.067-1.5Zm-.174-.93a.792.792,0,0,1,.22.087.773.773,0,0,1,.215.182.954.954,0,0,1,.16.288,1.182,1.182,0,0,1,.063.405,1.14,1.14,0,0,1-.1.5A.955.955,0,0,1,2.2-.64a.948.948,0,0,1-.337.18,1.27,1.27,0,0,1-.359.054H.468V-4.258h.925a1.583,1.583,0,0,1,.345.041.913.913,0,0,1,.335.15.831.831,0,0,1,.25.294.994.994,0,0,1,.1.468,1.133,1.133,0,0,1-.044.332.893.893,0,0,1-.117.248.748.748,0,0,1-.169.177.791.791,0,0,1-.2.109Zm5.527.484V-.406H6.936V-1.946L5.978-4.258h.533L7.18-2.446l.685-1.811h.522Zm8.5-1.893V-.406h-.484V-3.839H14.7v-.419h1.953v.419ZM22-.406l-.653-1.719H20.9V-.406H20.42V-4.258h1a1.366,1.366,0,0,1,.4.057.874.874,0,0,1,.329.182.856.856,0,0,1,.223.326,1.288,1.288,0,0,1,.082.484,1.256,1.256,0,0,1-.06.408,1.017,1.017,0,0,1-.155.3.8.8,0,0,1-.209.193.679.679,0,0,1-.223.092L22.52-.406Zm-.033-2.78a.811.811,0,0,0-.054-.321.557.557,0,0,0-.141-.2.49.49,0,0,0-.2-.106.9.9,0,0,0-.228-.03H20.9v1.338h.451a.588.588,0,0,0,.446-.177A.7.7,0,0,0,21.965-3.186Zm6.141,2.78-.218-.9H26.774l-.223.9h-.5l.968-3.851h.647l.946,3.851ZM27.35-3.8h-.022L26.839-1.7h.985Zm6.19,3.394H32.91l-.946-3.851H32.5l.734,3.286h.011l.734-3.286H34.5Zm4.754,0V-4.258h1.621v.435H38.768v1.213H39.84V-2.2H38.768V-.847h1.2v.441Zm5.657,0V-4.258h.49V-.863h1.088v.457Zm5.369,0V-4.258h.49V-.863H50.9v.457Zm5.369,0V-4.258h1.621v.435H55.163v1.213h1.072V-2.2H55.163V-.847h1.2v.441Zm7.235,0-.653-1.719h-.446V-.406h-.479V-4.258h1a1.366,1.366,0,0,1,.4.057.874.874,0,0,1,.329.182.856.856,0,0,1,.223.326,1.288,1.288,0,0,1,.082.484,1.256,1.256,0,0,1-.06.408,1.017,1.017,0,0,1-.155.3.8.8,0,0,1-.209.193.679.679,0,0,1-.223.092l.718,1.811Zm-.033-2.78a.811.811,0,0,0-.054-.321.557.557,0,0,0-.141-.2.49.49,0,0,0-.2-.106.9.9,0,0,0-.228-.03h-.441v1.338h.451a.588.588,0,0,0,.446-.177A.7.7,0,0,0,61.892-3.186Zm6.468.011a1.358,1.358,0,0,1-.082.49.991.991,0,0,1-.22.351.932.932,0,0,1-.315.209.994.994,0,0,1-.373.071h-.522V-.406h-.484V-4.258h.974a1.3,1.3,0,0,1,.356.052.867.867,0,0,1,.329.177.943.943,0,0,1,.242.335A1.254,1.254,0,0,1,68.359-3.175Zm-.484.005a.688.688,0,0,0-.163-.509.579.579,0,0,0-.424-.16h-.441v1.376h.441a.551.551,0,0,0,.424-.177A.758.758,0,0,0,67.875-3.17ZM73.728-.406l-.218-.9H72.4l-.223.9h-.5l.968-3.851h.647l.946,3.851ZM72.972-3.8H72.95L72.461-1.7h.985Zm6.816,2.372a1.287,1.287,0,0,1-.082.471,1.025,1.025,0,0,1-.22.351.948.948,0,0,1-.329.218,1.088,1.088,0,0,1-.408.076,1.309,1.309,0,0,1-.558-.122A1.125,1.125,0,0,1,77.77-.76l.288-.354a.877.877,0,0,0,.313.256.848.848,0,0,0,.378.092.536.536,0,0,0,.4-.163.654.654,0,0,0,.158-.473.638.638,0,0,0-.049-.258.68.68,0,0,0-.136-.2,1.177,1.177,0,0,0-.2-.163,2.353,2.353,0,0,0-.242-.139,2.256,2.256,0,0,1-.3-.171,1.305,1.305,0,0,1-.248-.22.935.935,0,0,1-.171-.3,1.182,1.182,0,0,1-.063-.405,1.241,1.241,0,0,1,.087-.484.993.993,0,0,1,.231-.343.922.922,0,0,1,.329-.2,1.12,1.12,0,0,1,.375-.065,1.275,1.275,0,0,1,.5.092.912.912,0,0,1,.367.277l-.294.348a.661.661,0,0,0-.555-.272.611.611,0,0,0-.2.035.5.5,0,0,0-.182.114.574.574,0,0,0-.131.2.761.761,0,0,0-.049.288.63.63,0,0,0,.046.253.666.666,0,0,0,.125.19,1,1,0,0,0,.182.152,2.176,2.176,0,0,0,.223.128,3.093,3.093,0,0,1,.3.171,1.375,1.375,0,0,1,.267.226,1.041,1.041,0,0,1,.193.307A1.064,1.064,0,0,1,79.788-1.429Zm5.733,0a1.287,1.287,0,0,1-.082.471,1.025,1.025,0,0,1-.22.351.948.948,0,0,1-.329.218,1.088,1.088,0,0,1-.408.076,1.309,1.309,0,0,1-.558-.122A1.125,1.125,0,0,1,83.5-.76l.288-.354a.877.877,0,0,0,.313.256.848.848,0,0,0,.378.092.536.536,0,0,0,.4-.163.654.654,0,0,0,.158-.473.638.638,0,0,0-.049-.258.68.68,0,0,0-.136-.2,1.177,1.177,0,0,0-.2-.163,2.353,2.353,0,0,0-.242-.139,2.257,2.257,0,0,1-.3-.171,1.305,1.305,0,0,1-.248-.22.935.935,0,0,1-.171-.3,1.182,1.182,0,0,1-.063-.405,1.241,1.241,0,0,1,.087-.484.993.993,0,0,1,.231-.343.922.922,0,0,1,.329-.2,1.12,1.12,0,0,1,.375-.065,1.275,1.275,0,0,1,.5.092.912.912,0,0,1,.367.277l-.294.348a.661.661,0,0,0-.555-.272.611.611,0,0,0-.2.035.5.5,0,0,0-.182.114.574.574,0,0,0-.131.2.761.761,0,0,0-.049.288.63.63,0,0,0,.046.253.666.666,0,0,0,.125.19,1,1,0,0,0,.182.152,2.175,2.175,0,0,0,.223.128,3.093,3.093,0,0,1,.3.171,1.375,1.375,0,0,1,.267.226,1.041,1.041,0,0,1,.193.307A1.064,1.064,0,0,1,85.521-1.429Z" transform="translate(327.229 880.515)" fill="#132c4a"/>
  </g>
</svg>
