<svg xmlns="http://www.w3.org/2000/svg" xmlns:xlink="http://www.w3.org/1999/xlink" width="375" height="75" viewBox="0 0 375 75">
  <defs>
    <clipPath id="clip-path">
      <rect id="Rectangle_28325" data-name="Rectangle 28325" width="375" height="75" rx="5" transform="translate(7713 -2855)" fill="#fff"/>
    </clipPath>
    <clipPath id="clip-path-2">
      <rect id="Rectangle_28323" data-name="Rectangle 28323" width="153.412" height="152.627" fill="none"/>
    </clipPath>
    <clipPath id="clip-path-3">
      <rect id="Rectangle_28324" data-name="Rectangle 28324" width="251.619" height="226.756" fill="none"/>
    </clipPath>
  </defs>
  <g id="Mask_Group_18597" data-name="Mask Group 18597" transform="translate(-7713 2855)" clip-path="url(#clip-path)">
    <g id="Group_31051" data-name="Group 31051" transform="translate(4769.893 17121.234)">
      <g id="Group_31048" data-name="Group 31048" transform="translate(2943 -20059.094)">
        <g id="Group_31047" data-name="Group 31047" clip-path="url(#clip-path-2)">
          <path id="Path_324169" data-name="Path 324169" d="M135.85,132.412A160.2,160.2,0,0,0,109.8,101.73,195.349,195.349,0,0,0,77.7,77.478c.342.108.686.213,1.027.325A81.654,81.654,0,0,1,88.97,81.911a83.126,83.126,0,0,1,14.159,8.78,86.575,86.575,0,0,1,10.752,9.638c2.106,2.25,4.268,4.466,6.172,6.88,2.666,3.379,5.207,6.867,7.628,10.426,1.9,2.792,3.585,5.734,5.27,8.665,1.114,1.938,2.058,3.973,3.078,5.964l-.179.148" transform="translate(-64.465 -64.28)" fill="#f7cc7f"/>
          <path id="Path_324170" data-name="Path 324170" d="M535.384,291.713a154.974,154.974,0,0,0-35.523,5.7,122.66,122.66,0,0,0-32.842,14.364l-.1-.162c.813-.706,1.6-1.446,2.445-2.11,1.456-1.142,2.927-2.268,4.431-3.346a75.771,75.771,0,0,1,9.831-6.116c2.458-1.246,4.916-2.5,7.432-3.618a73.761,73.761,0,0,1,14.253-4.67,69.851,69.851,0,0,1,18.9-1.637,60.9,60.9,0,0,1,11.17,1.6" transform="translate(-387.378 -240.612)" fill="#f7cc7f"/>
          <path id="Path_324171" data-name="Path 324171" d="M56.234,310.335c2.987-.367,5.969-.781,8.961-1.091a48,48,0,0,1,11.273.262,78.786,78.786,0,0,1,9,1.743c2.664.677,5.255,1.657,7.859,2.559a59.33,59.33,0,0,1,10.414,4.924c2.68,1.562,5.273,3.285,7.821,5.058,1.8,1.254,3.463,2.712,5.187,4.078a1.371,1.371,0,0,1,.392.414c-18.718-11.4-39.225-16.578-60.9-17.728q-.005-.11-.011-.219" transform="translate(-46.655 -256.383)" fill="#f47458"/>
          <path id="Path_324172" data-name="Path 324172" d="M126.183,429.85c-1.205,0-2.418-.082-3.615.016-3.285.267-6.574.533-9.844.939a74.657,74.657,0,0,0-12.369,2.642c-3.722,1.123-7.438,2.286-11.089,3.618-3.174,1.158-6.265,2.546-9.37,3.888A107.219,107.219,0,0,0,67.8,447.211c-.172.1-.361.172-.661.312,13.822-13.818,36.326-22,59.008-17.861l.032.188" transform="translate(-55.705 -355.575)" fill="#f47458"/>
          <path id="Path_324173" data-name="Path 324173" d="M462.633,453.815c21.949,8.446,37.4,23.7,46.97,45.114-.758-1.062-1.478-2.153-2.28-3.18-2.821-3.611-5.594-7.264-8.533-10.777-2.393-2.86-4.9-5.635-7.532-8.28-3.2-3.218-6.528-6.306-9.883-9.359a72.077,72.077,0,0,0-6.124-5.028c-2.863-2.08-5.842-4-8.8-5.948-1.291-.848-2.655-1.584-3.986-2.371l.168-.169" transform="translate(-383.684 -376.508)" fill="#f7cc7f"/>
          <path id="Path_324174" data-name="Path 324174" d="M458.817,218.513c.665-1.051,1.274-2.143,2.006-3.145,2.1-2.88,4.156-5.8,6.408-8.563a72.877,72.877,0,0,1,10.47-10.549c2.586-2.1,5.237-4.138,7.99-6.01a61.626,61.626,0,0,1,24.061-9.539c.04-.007.087.023.134.037-19.75,8.905-37.071,21.072-51.069,37.769" transform="translate(-380.658 -149.923)" fill="#f47458"/>
          <path id="Path_324175" data-name="Path 324175" d="M482.628,93.124c-14.943,14.722-27.039,31.418-35.306,50.816a7.126,7.126,0,0,1,.134-.793A109.04,109.04,0,0,1,451.78,130.9a93.011,93.011,0,0,1,5.887-11.734,80.4,80.4,0,0,1,5.043-7.562,89.831,89.831,0,0,1,6.888-8.177,86.144,86.144,0,0,1,7.5-6.611c1.715-1.4,3.616-2.57,5.434-3.842l.1.151" transform="translate(-371.121 -77.135)" fill="#f47458"/>
          <path id="Path_324176" data-name="Path 324176" d="M459.8,460.55c1.344,1.129,2.717,2.226,4.027,3.394a66.876,66.876,0,0,1,9.052,9.963,72.462,72.462,0,0,1,7.162,11.568c1.409,2.889,2.8,5.8,4.011,8.77a80.482,80.482,0,0,1,3.856,11.82c.6,2.527,1.15,5.066,1.72,7.6a.861.861,0,0,1-.01.416,141.922,141.922,0,0,0-12.368-28.176,165.361,165.361,0,0,0-17.586-25.213l.137-.143" transform="translate(-381.364 -382.096)" fill="#f47458"/>
          <path id="Path_324177" data-name="Path 324177" d="M476.095,426.45a59.159,59.159,0,0,1,51.863,14.461c-1.005-.543-1.987-1.138-3.021-1.619-3.629-1.688-7.255-3.385-10.923-4.983-2.1-.915-4.255-1.723-6.431-2.442-2.66-.88-5.338-1.745-8.062-2.383-3.722-.873-7.476-1.649-11.252-2.239a69.348,69.348,0,0,0-12.175-.794" transform="translate(-394.993 -352.788)" fill="#f47458"/>
          <path id="Path_324178" data-name="Path 324178" d="M536.8,391.559c-15.336-3.4-30.634-3.973-45.888.495a53.422,53.422,0,0,1,24.641-5.871,46.193,46.193,0,0,1,21.248,5.376" transform="translate(-407.289 -320.395)" fill="#f7cc7f"/>
          <path id="Path_324179" data-name="Path 324179" d="M261.948,453.214c-13.09,11.208-23.985,24.121-31.766,39.574.41-1.138.743-2.31,1.242-3.408,1.5-3.3,3-6.617,4.634-9.857a66.331,66.331,0,0,1,5.858-9.112,60.08,60.08,0,0,1,6.8-7.793,51.4,51.4,0,0,1,10.7-8.042c.837-.465,1.687-.909,2.531-1.363" transform="translate(-190.971 -376.009)" fill="#f7cc7f"/>
          <path id="Path_324180" data-name="Path 324180" d="M215.363,284.147c-11.8-11.162-24.756-20.476-40.536-25.354,3.846-.527,17.158,4.262,23.113,8.124a59.192,59.192,0,0,1,17.424,17.23" transform="translate(-145.045 -214.675)" fill="#f47458"/>
          <path id="Path_324181" data-name="Path 324181" d="M394.087,460.16a173.735,173.735,0,0,0-6.042,26.922,129.779,129.779,0,0,0-1.247,27.6c-1.351-2.341-1.947-19.648-.965-27.918,1.193-10.042,4.414-19.964,8.254-26.6" transform="translate(-319.702 -381.772)" fill="#f7cc7f"/>
          <path id="Path_324182" data-name="Path 324182" d="M371.828,135.936a192.358,192.358,0,0,0-3.775-27.005,130.46,130.46,0,0,0-8.269-25.854c9.785,16.3,14.063,33.872,12.043,52.859" transform="translate(-298.496 -68.925)" fill="#f7cc7f"/>
          <path id="Path_324183" data-name="Path 324183" d="M482.392,448.409c.893.021,1.792-.019,2.678.073a54.171,54.171,0,0,1,11.678,2.5,46.539,46.539,0,0,1,9.76,4.361c2.517,1.558,5.005,3.185,7.358,4.976a45.655,45.655,0,0,1,7.148,6.884c.573.677,1.149,1.351,1.655,2.078-1.819-1.374-3.616-2.78-5.462-4.117a100.367,100.367,0,0,0-12.835-8.015c-2.779-1.432-5.586-2.826-8.456-4.058a69.813,69.813,0,0,0-12.679-4.112,2.07,2.07,0,0,1-.478-.247l-.367-.327" transform="translate(-400.217 -372.023)" fill="#f47458"/>
          <path id="Path_324184" data-name="Path 324184" d="M118.684,377.179c1.114-.369,2.211-.8,3.344-1.1a51.347,51.347,0,0,1,13.632-1.76,43.072,43.072,0,0,1,12.958,1.955c2.089.676,4.119,1.532,6.174,2.313a7.537,7.537,0,0,1,.7.365c-2.1-.342-4.083-.7-6.072-.983a95.343,95.343,0,0,0-17.162-.885,73.836,73.836,0,0,0-11.285,1.167,8.757,8.757,0,0,1-1.106.075l-1.187-1.151" transform="translate(-98.466 -310.555)" fill="#f7cc7f"/>
          <path id="Path_324185" data-name="Path 324185" d="M392.155,32.794a68.531,68.531,0,0,1,9.207,43.084c-.93-14.821-3.452-29.3-9.207-43.084" transform="translate(-325.352 -27.208)" fill="#f47458"/>
          <path id="Path_324186" data-name="Path 324186" d="M227.947,462.174c7.654-11.282,18.185-17.989,31.719-19.914-12.3,3.9-22.464,11.182-31.719,19.914" transform="translate(-189.116 -366.921)" fill="#f47458"/>
          <path id="Path_324187" data-name="Path 324187" d="M145.083,475.152c7.779-10.217,18.314-16.061,30.573-19.151a138.05,138.05,0,0,0-30.573,19.151" transform="translate(-120.368 -378.322)" fill="#f7cc7f"/>
          <path id="Path_324188" data-name="Path 324188" d="M340.3,212.306c-3.706-12.678-8.758-24.7-16.762-35.313A56.6,56.6,0,0,1,340.3,212.306" transform="translate(-268.421 -146.842)" fill="#f47458"/>
          <path id="Path_324189" data-name="Path 324189" d="M453.113,463.009c5.995,11.371,8.426,23.381,6.458,36.178-.325-12.387-2.042-24.524-6.458-36.178" transform="translate(-375.926 -384.136)" fill="#f47458"/>
          <path id="Path_324190" data-name="Path 324190" d="M445.95,193.775c.5-10.183,5.134-24.162,13.59-32.4-1.442,2.531-2.978,5.061-4.347,7.678s-2.671,5.3-3.829,8.023c-1.166,2.746-2.221,5.55-3.135,8.389-.906,2.814-1.575,5.7-2.279,8.308" transform="translate(-369.983 -133.887)" fill="#f7cc7f"/>
          <path id="Path_324191" data-name="Path 324191" d="M596.675,114.445a72.733,72.733,0,0,0-26.234,17.615,43.906,43.906,0,0,1,11.272-11.675,31.54,31.54,0,0,1,14.962-5.94" transform="translate(-473.267 -94.949)" fill="#f7cc7f"/>
          <path id="Path_324192" data-name="Path 324192" d="M666.68,495.345c-7.483-7.844-15.758-14.581-26.088-18.578,9.325,1.446,20.125,8.209,26.088,18.578" transform="translate(-531.468 -395.55)" fill="#f7cc7f"/>
          <path id="Path_324193" data-name="Path 324193" d="M687.382,338.252a33.788,33.788,0,0,1,13.845-2.006,31.8,31.8,0,0,1,16.19,5.478c-9.764-3.317-19.7-5.1-30.035-3.472" transform="translate(-570.287 -278.915)" fill="#f47458"/>
          <path id="Path_324194" data-name="Path 324194" d="M143.491,276.937a122.876,122.876,0,0,0-27-7.648c5.276-1.412,22.516,3.442,27,7.648" transform="translate(-96.647 -223.209)" fill="#f7cc7f"/>
          <path id="Path_324195" data-name="Path 324195" d="M75.092,391.1l1.187,1.151c-1.07.274-2.146.528-3.209.826-2.184.613-4.361,1.25-6.541,1.876a.415.415,0,0,1-.388-.047c.626-.327,1.233-.7,1.88-.975,2.191-.937,4.395-1.843,6.6-2.753a2.1,2.1,0,0,1,.473-.079" transform="translate(-54.875 -324.478)" fill="#f7cc7f"/>
          <path id="Path_324196" data-name="Path 324196" d="M271.741,458.959c-.939.922-1.943,1.787-2.806,2.776-2.727,3.125-5.536,6.193-8.057,9.479a107.818,107.818,0,0,0-6.011,9.007,78.312,78.312,0,0,0-4.042,7.369c-1.487,3.11-2.878,6.277-4.1,9.5-1.169,3.092-2.163,6.259-3.052,9.444-.778,2.787-1.348,5.635-1.921,8.475-.3,1.487-.409,3.013-.6,4.521l-.618,3.97.25.047.83-3.518a4.273,4.273,0,0,0,.3-.6c.529-1.678,1-3.375,1.576-5.037,1.094-3.175,2.171-6.358,3.385-9.488,1.549-3.994,3.183-7.957,4.869-11.9.984-2.3,2.1-4.546,3.228-6.779,1.525-3.015,3.048-6.036,4.708-8.978q2.251-3.99,4.807-7.806c1.994-2.98,4.134-5.861,6.216-8.781.383-.537.793-1.055,1.19-1.581l-.151-.12" transform="translate(-199.558 -380.776)" fill="#f47458"/>
          <path id="Path_324197" data-name="Path 324197" d="M472.557,447.594l.367.327c-.6-.069-1.2-.131-1.794-.21a.954.954,0,0,1-.592-.285l2.019.167" transform="translate(-390.382 -371.208)" fill="#f47458"/>
          <path id="Path_324198" data-name="Path 324198" d="M278.99,90.526l-.013-1.7-1.408-.953a.234.234,0,0,1,.057-.415l1.612-.538.471-1.633a.233.233,0,0,1,.412-.074l1.01,1.367,1.7-.057a.234.234,0,0,1,.2.369l-.988,1.383.579,1.6a.233.233,0,0,1-.29.3l-1.621-.512-1.341,1.045a.234.234,0,0,1-.377-.182" transform="translate(-230.2 -70.619)" fill="#f7cc7f"/>
          <path id="Path_324199" data-name="Path 324199" d="M14.068,311.442l-.013-1.7-1.408-.952a.233.233,0,0,1,.057-.415l1.613-.538.471-1.633a.233.233,0,0,1,.412-.074l1.01,1.367,1.7-.057a.234.234,0,0,1,.2.369l-.988,1.383.579,1.6a.234.234,0,0,1-.29.3l-1.621-.512-1.341,1.045a.234.234,0,0,1-.377-.182" transform="translate(-10.407 -253.902)" fill="#f47458"/>
          <path id="Path_324200" data-name="Path 324200" d="M75.02,581.91l-.008-.987-.817-.553a.136.136,0,0,1,.033-.241l.936-.312.273-.948a.136.136,0,0,1,.24-.043l.586.794.986-.033a.136.136,0,0,1,.115.214l-.573.8.336.927a.136.136,0,0,1-.168.176l-.941-.3-.778.607a.136.136,0,0,1-.219-.106" transform="translate(-61.506 -480.178)" fill="#f7cc7f"/>
          <path id="Path_324201" data-name="Path 324201" d="M148.759,659.73l-.012-1.521-1.26-.852a.209.209,0,0,1,.051-.371l1.443-.482.421-1.462a.209.209,0,0,1,.369-.066l.9,1.223,1.52-.051a.209.209,0,0,1,.177.33l-.884,1.238.518,1.43a.209.209,0,0,1-.259.271l-1.451-.458-1.2.935a.209.209,0,0,1-.337-.163" transform="translate(-122.287 -543.331)" fill="#f47458"/>
          <path id="Path_324202" data-name="Path 324202" d="M212.623,863.387l-.016-2-1.656-1.12a.275.275,0,0,1,.067-.488l1.9-.633.554-1.921a.275.275,0,0,1,.485-.087l1.188,1.608,2-.067a.275.275,0,0,1,.233.434l-1.162,1.627.681,1.879a.275.275,0,0,1-.341.355l-1.906-.6-1.577,1.229a.275.275,0,0,1-.444-.215" transform="translate(-174.916 -711.033)" fill="#f7cc7f"/>
          <path id="Path_324203" data-name="Path 324203" d="M331.476,736.51l-.01-1.3-1.073-.726a.178.178,0,0,1,.043-.317l1.229-.41.359-1.245a.178.178,0,0,1,.314-.057l.77,1.042,1.3-.043a.178.178,0,0,1,.151.281l-.753,1.055.441,1.218a.178.178,0,0,1-.221.23l-1.235-.39-1.022.8a.178.178,0,0,1-.287-.139" transform="translate(-274.045 -607.626)" fill="#f47458"/>
          <path id="Path_324204" data-name="Path 324204" d="M1.162,421.871l-.01-1.3L.078,419.85a.178.178,0,0,1,.043-.316l1.229-.41.359-1.245a.178.178,0,0,1,.314-.056l.77,1.042,1.3-.043a.178.178,0,0,1,.151.281l-.753,1.054.441,1.218a.178.178,0,0,1-.221.231l-1.235-.391-1.022.8a.178.178,0,0,1-.287-.139" transform="translate(0 -346.586)" fill="#f47458"/>
          <path id="Path_324205" data-name="Path 324205" d="M439.318,625.175l-.013-1.57-1.3-.88a.216.216,0,0,1,.053-.383l1.49-.5.435-1.509a.216.216,0,0,1,.381-.068l.933,1.263,1.57-.053a.216.216,0,0,1,.183.341l-.913,1.278.535,1.476a.216.216,0,0,1-.268.279l-1.5-.474-1.239.965a.216.216,0,0,1-.348-.168" transform="translate(-363.312 -514.532)" fill="#f7cc7f"/>
          <path id="Path_324206" data-name="Path 324206" d="M146.492,412.551l-.012-1.57-1.3-.88a.216.216,0,0,1,.053-.383l1.49-.5.435-1.509a.216.216,0,0,1,.381-.068l.933,1.263,1.57-.052a.216.216,0,0,1,.183.341l-.913,1.278.535,1.477a.216.216,0,0,1-.268.279l-1.5-.474-1.239.965a.216.216,0,0,1-.349-.168" transform="translate(-120.369 -338.128)" fill="#f7cc7f"/>
          <path id="Path_324207" data-name="Path 324207" d="M146.492,207.424l-.012-1.57-1.3-.88a.216.216,0,0,1,.053-.383l1.49-.5.435-1.509a.216.216,0,0,1,.381-.068l.933,1.263,1.57-.053a.216.216,0,0,1,.183.341l-.913,1.278.535,1.477a.216.216,0,0,1-.268.279l-1.5-.473-1.239.965a.216.216,0,0,1-.349-.168" transform="translate(-120.369 -167.945)" fill="#f47458"/>
          <path id="Path_324208" data-name="Path 324208" d="M770.752,377.626l-.012-1.57-1.3-.88a.216.216,0,0,1,.053-.383l1.49-.5.435-1.509a.216.216,0,0,1,.381-.068l.933,1.263,1.57-.052a.216.216,0,0,1,.183.341l-.913,1.278.535,1.477a.216.216,0,0,1-.268.279l-1.5-.473-1.239.965a.216.216,0,0,1-.348-.168" transform="translate(-638.287 -309.152)" fill="#f47458"/>
          <path id="Path_324209" data-name="Path 324209" d="M462.3,148.953l-.013-1.57-1.3-.88a.216.216,0,0,1,.053-.383l1.49-.5.435-1.509a.216.216,0,0,1,.381-.068l.933,1.263,1.57-.052a.216.216,0,0,1,.183.341l-.913,1.278.535,1.477a.216.216,0,0,1-.268.279l-1.5-.474-1.239.965a.216.216,0,0,1-.348-.168" transform="translate(-382.38 -119.434)" fill="#f47458"/>
          <path id="Path_324210" data-name="Path 324210" d="M54.995,151.079l-.012-1.57-1.3-.88a.216.216,0,0,1,.053-.383l1.49-.5.435-1.509a.216.216,0,0,1,.381-.068l.933,1.263,1.57-.053a.216.216,0,0,1,.183.341L57.812,149l.535,1.477a.216.216,0,0,1-.268.279l-1.5-.474-1.239.965a.216.216,0,0,1-.349-.168" transform="translate(-44.458 -121.198)" fill="#f7cc7f"/>
          <path id="Path_324211" data-name="Path 324211" d="M710.646,239.082l-.012-1.57-1.3-.88a.216.216,0,0,1,.053-.383l1.49-.5.435-1.509a.216.216,0,0,1,.381-.068l.933,1.263,1.57-.053a.216.216,0,0,1,.183.341L713.463,237l.535,1.477a.216.216,0,0,1-.268.279l-1.5-.474-1.239.965a.216.216,0,0,1-.349-.168" transform="translate(-588.42 -194.209)" fill="#f7cc7f"/>
          <path id="Path_324212" data-name="Path 324212" d="M482.963,726.816l.817-.325.2-.857a.121.121,0,0,1,.211-.05l.562.676.875-.079a.121.121,0,0,1,.113.185l-.47.743.346.808a.121.121,0,0,1-.141.165l-.852-.217-.662.579a.121.121,0,0,1-.2-.083l-.057-.877-.755-.451a.121.121,0,0,1,.017-.216" transform="translate(-400.627 -601.944)" fill="#f47458"/>
          <path id="Path_324213" data-name="Path 324213" d="M377,1.276l.817-.325.2-.857a.121.121,0,0,1,.211-.05l.562.676.876-.079a.121.121,0,0,1,.113.185l-.47.743.346.808a.121.121,0,0,1-.141.165l-.852-.217L378,2.9a.121.121,0,0,1-.2-.083l-.057-.877-.755-.451A.121.121,0,0,1,377,1.276" transform="translate(-312.717 0)" fill="#f47458"/>
          <path id="Path_324214" data-name="Path 324214" d="M57.8,48.761l.817-.325.2-.857a.121.121,0,0,1,.211-.05l.562.676.876-.079a.121.121,0,0,1,.113.185l-.469.743.346.808a.121.121,0,0,1-.141.165l-.852-.217-.662.579a.121.121,0,0,1-.2-.083l-.057-.877-.755-.451a.121.121,0,0,1,.017-.216" transform="translate(-47.889 -39.395)" fill="#f47458"/>
          <path id="Path_324215" data-name="Path 324215" d="M534.189,628.139l.817-.325.2-.857a.121.121,0,0,1,.211-.05l.562.676.876-.079a.121.121,0,0,1,.113.185l-.47.743.346.808a.121.121,0,0,1-.141.165l-.852-.217-.662.579a.121.121,0,0,1-.2-.083l-.057-.877-.755-.451a.121.121,0,0,1,.017-.216" transform="translate(-443.127 -520.077)" fill="#f47458"/>
          <path id="Path_324216" data-name="Path 324216" d="M744.977,727.624l1.335-.531.319-1.4a.2.2,0,0,1,.344-.082l.918,1.105,1.431-.13a.2.2,0,0,1,.185.3l-.767,1.214.565,1.321a.2.2,0,0,1-.23.269l-1.392-.355-1.081.945a.2.2,0,0,1-.327-.136l-.093-1.434-1.233-.736a.2.2,0,0,1,.028-.353" transform="translate(-617.968 -601.944)" fill="#f47458"/>
          <path id="Path_324217" data-name="Path 324217" d="M670.209,676.184l.76-.016.417-.635a.1.1,0,0,1,.186.023l.25.718.733.2a.1.1,0,0,1,.036.184l-.605.46.036.759a.1.1,0,0,1-.164.091l-.624-.434-.711.268a.1.1,0,0,1-.137-.128l.219-.727-.475-.593a.1.1,0,0,1,.079-.17" transform="translate(-555.954 -560.417)" fill="#f47458"/>
          <path id="Path_324218" data-name="Path 324218" d="M734.773,632.681l1.294-.028.711-1.082a.178.178,0,0,1,.316.039l.426,1.222,1.248.342a.178.178,0,0,1,.06.313l-1.03.783.061,1.293a.178.178,0,0,1-.279.154l-1.063-.738-1.211.457a.178.178,0,0,1-.233-.218l.373-1.239-.809-1.01a.178.178,0,0,1,.135-.289" transform="translate(-609.461 -523.917)" fill="#f47458"/>
          <path id="Path_324219" data-name="Path 324219" d="M875.5,382.066l1.294-.028.711-1.082a.178.178,0,0,1,.317.039l.426,1.222,1.248.342a.178.178,0,0,1,.061.313l-1.03.783.061,1.293a.178.178,0,0,1-.279.155l-1.063-.738-1.211.457a.178.178,0,0,1-.233-.218l.374-1.239-.809-1.01a.178.178,0,0,1,.135-.289" transform="translate(-726.213 -315.994)" fill="#f7cc7f"/>
          <path id="Path_324220" data-name="Path 324220" d="M727.873,588.185l.616-.013.339-.515a.085.085,0,0,1,.151.019l.2.582.594.163a.085.085,0,0,1,.029.149l-.491.373.029.616a.084.084,0,0,1-.133.073l-.506-.351-.576.218a.085.085,0,0,1-.111-.1l.178-.59-.385-.481a.085.085,0,0,1,.064-.138" transform="translate(-603.812 -487.518)" fill="#f7cc7f"/>
          <path id="Path_324221" data-name="Path 324221" d="M787.809,677.439l.616-.013.339-.515a.085.085,0,0,1,.151.019l.2.582.594.163a.085.085,0,0,1,.029.149l-.491.373.029.616a.085.085,0,0,1-.133.073l-.506-.351-.576.218a.084.084,0,0,1-.111-.1l.178-.59-.385-.481a.085.085,0,0,1,.064-.138" transform="translate(-653.538 -561.568)" fill="#f47458"/>
          <path id="Path_324222" data-name="Path 324222" d="M814.759,601.013l.616-.013.339-.515a.085.085,0,0,1,.151.019l.2.582.594.163a.085.085,0,0,1,.029.149l-.491.373.029.616a.085.085,0,0,1-.133.073l-.506-.351-.577.218a.085.085,0,0,1-.111-.1l.178-.59-.385-.481a.085.085,0,0,1,.064-.138" transform="translate(-675.897 -498.161)" fill="#f47458"/>
          <path id="Path_324223" data-name="Path 324223" d="M844.724,553.779l.616-.013.338-.515a.085.085,0,0,1,.151.019l.2.582.594.163a.085.085,0,0,1,.029.149l-.491.373.029.615a.085.085,0,0,1-.133.074l-.506-.351-.576.218a.085.085,0,0,1-.111-.1l.178-.59-.385-.481a.085.085,0,0,1,.064-.138" transform="translate(-700.757 -458.973)" fill="#f47458"/>
          <path id="Path_324224" data-name="Path 324224" d="M844.724,430.934l.616-.013.338-.515a.085.085,0,0,1,.151.019l.2.582.594.163a.085.085,0,0,1,.029.149l-.491.373.029.615a.085.085,0,0,1-.133.074l-.506-.351-.576.218a.085.085,0,0,1-.111-.1l.178-.59-.385-.481a.085.085,0,0,1,.064-.138" transform="translate(-700.757 -357.055)" fill="#f47458"/>
          <path id="Path_324225" data-name="Path 324225" d="M754.368,213.846l.616-.013.339-.515a.085.085,0,0,1,.151.019l.2.582.594.163a.085.085,0,0,1,.029.149l-.491.373.029.615a.085.085,0,0,1-.133.074l-.506-.351-.577.218a.085.085,0,0,1-.111-.1l.178-.59-.385-.481a.085.085,0,0,1,.064-.138" transform="translate(-625.793 -176.947)" fill="#f47458"/>
          <path id="Path_324226" data-name="Path 324226" d="M396.652,109.06l.616-.013.338-.515a.085.085,0,0,1,.151.019l.2.582.594.163a.085.085,0,0,1,.029.149l-.491.373.029.615a.085.085,0,0,1-.133.074l-.506-.351-.576.218a.085.085,0,0,1-.111-.1l.178-.59-.385-.481a.085.085,0,0,1,.064-.138" transform="translate(-329.014 -90.012)" fill="#f47458"/>
          <path id="Path_324227" data-name="Path 324227" d="M214.793,228.5l.616-.013.338-.515a.085.085,0,0,1,.151.019l.2.582.594.163a.085.085,0,0,1,.029.149l-.491.373.029.616a.085.085,0,0,1-.133.074l-.506-.352-.576.218a.085.085,0,0,1-.111-.1l.178-.59-.385-.481a.085.085,0,0,1,.064-.138" transform="translate(-178.135 -189.102)" fill="#f47458"/>
          <path id="Path_324228" data-name="Path 324228" d="M690.709,87.588l.616-.013.339-.515a.085.085,0,0,1,.151.019l.2.582.594.163a.085.085,0,0,1,.029.149l-.491.373.029.615a.085.085,0,0,1-.133.074l-.506-.351-.576.218a.085.085,0,0,1-.111-.1l.178-.59-.385-.481a.085.085,0,0,1,.064-.138" transform="translate(-572.979 -72.197)" fill="#f47458"/>
          <path id="Path_324229" data-name="Path 324229" d="M606.31,79.735l.616-.013.338-.515a.085.085,0,0,1,.151.019l.2.582.594.163a.085.085,0,0,1,.029.149l-.491.373.029.616a.085.085,0,0,1-.133.074l-.506-.351-.576.218a.085.085,0,0,1-.111-.1l.178-.59-.385-.481a.085.085,0,0,1,.064-.138" transform="translate(-502.957 -65.682)" fill="#f47458"/>
          <path id="Path_324230" data-name="Path 324230" d="M656.933,41.194l1.21-.026.665-1.012a.166.166,0,0,1,.3.037l.4,1.143,1.168.32a.166.166,0,0,1,.057.293l-.964.732.057,1.209a.166.166,0,0,1-.261.144l-.994-.69-1.132.428a.166.166,0,0,1-.218-.2l.349-1.159-.757-.945a.166.166,0,0,1,.126-.27" transform="translate(-544.89 -33.253)" fill="#f47458"/>
          <path id="Path_324231" data-name="Path 324231" d="M685.01,154.788l1.2.384,1-.77a.173.173,0,0,1,.279.136l.005,1.258,1.039.709a.173.173,0,0,1-.043.307l-1.195.394-.353,1.208a.173.173,0,0,1-.305.054l-.744-1.015-1.258.037a.173.173,0,0,1-.146-.274l.735-1.021-.424-1.184a.173.173,0,0,1,.215-.223" transform="translate(-567.855 -128.07)" fill="#f7cc7f"/>
          <path id="Path_324232" data-name="Path 324232" d="M772.918,142.076l1.2.384,1-.769a.173.173,0,0,1,.279.136l.005,1.258,1.039.709a.173.173,0,0,1-.043.307l-1.195.394-.353,1.208a.173.173,0,0,1-.305.054l-.744-1.015-1.257.038a.173.173,0,0,1-.146-.274l.735-1.021L772.7,142.3a.173.173,0,0,1,.216-.223" transform="translate(-640.788 -117.523)" fill="#f47458"/>
          <path id="Path_324233" data-name="Path 324233" d="M551.509,109.251l1.2.384,1-.769a.173.173,0,0,1,.279.136l.005,1.258,1.04.709a.173.173,0,0,1-.043.307l-1.2.394-.353,1.208a.173.173,0,0,1-.305.054l-.744-1.015-1.258.038a.173.173,0,0,1-.145-.274l.735-1.021-.424-1.184a.173.173,0,0,1,.215-.223" transform="translate(-457.096 -90.29)" fill="#f7cc7f"/>
          <path id="Path_324234" data-name="Path 324234" d="M437.326,51.636l1.2.384,1-.769a.173.173,0,0,1,.279.136l.005,1.258,1.039.709a.173.173,0,0,1-.043.307l-1.195.394-.353,1.208a.173.173,0,0,1-.305.054L438.2,54.3l-1.258.038a.173.173,0,0,1-.145-.274l.735-1.021-.424-1.184a.173.173,0,0,1,.216-.223" transform="translate(-362.364 -42.49)" fill="#f7cc7f"/>
          <path id="Path_324235" data-name="Path 324235" d="M175.411,78.867l1.2.384,1-.77a.173.173,0,0,1,.279.136l.005,1.258,1.039.709a.173.173,0,0,1-.043.307l-1.2.394-.353,1.208a.173.173,0,0,1-.305.054l-.744-1.015-1.258.038a.173.173,0,0,1-.145-.274l.735-1.021L175.2,79.09a.173.173,0,0,1,.215-.223" transform="translate(-145.066 -65.082)" fill="#f47458"/>
          <path id="Path_324236" data-name="Path 324236" d="M864.591,501.367l.952-.02.523-.8a.131.131,0,0,1,.233.029l.314.9.918.251a.131.131,0,0,1,.045.23l-.758.576.045.951a.131.131,0,0,1-.205.114l-.782-.543-.89.336a.131.131,0,0,1-.172-.16l.275-.911-.6-.743a.131.131,0,0,1,.1-.213" transform="translate(-717.202 -415.233)" fill="#f47458"/>
          <path id="Path_324237" data-name="Path 324237" d="M782.882,466.866l.5-.011.276-.421a.069.069,0,0,1,.123.015l.166.475.486.133a.069.069,0,0,1,.024.122l-.4.3.024.5a.069.069,0,0,1-.109.06l-.414-.287-.471.178a.069.069,0,0,1-.091-.085l.145-.482-.315-.393a.069.069,0,0,1,.053-.112" transform="translate(-649.462 -386.952)" fill="#f47458"/>
          <path id="Path_324238" data-name="Path 324238" d="M868.9,328.308l.5-.011.277-.421a.069.069,0,0,1,.123.015l.166.475.486.133a.069.069,0,0,1,.024.122l-.4.3.024.5a.069.069,0,0,1-.109.06l-.414-.287-.471.178a.069.069,0,0,1-.091-.085l.145-.482-.315-.393a.069.069,0,0,1,.053-.112" transform="translate(-720.831 -271.997)" fill="#f47458"/>
          <path id="Path_324239" data-name="Path 324239" d="M574.946,758.9l.817-.325.2-.857a.121.121,0,0,1,.211-.05l.562.676.876-.079a.121.121,0,0,1,.113.185l-.47.743.346.808a.121.121,0,0,1-.141.165l-.852-.217-.662.579a.121.121,0,0,1-.2-.083l-.057-.877-.755-.451a.121.121,0,0,1,.017-.216" transform="translate(-476.941 -628.565)" fill="#f7cc7f"/>
          <path id="Path_324240" data-name="Path 324240" d="M631.086,791.547l1.306.289.978-.911a.184.184,0,0,1,.308.117l.128,1.331,1.169.649a.184.184,0,0,1-.016.329l-1.226.533-.256,1.313a.184.184,0,0,1-.318.087l-.886-1-1.327.162a.184.184,0,0,1-.181-.276l.678-1.152-.565-1.212a.184.184,0,0,1,.206-.257" transform="translate(-523.294 -656.15)" fill="#f47458"/>
          <path id="Path_324241" data-name="Path 324241" d="M176.841,585.282l0-.552-.458-.31a.076.076,0,0,1,.019-.135l.524-.175.153-.531a.076.076,0,0,1,.134-.024l.328.444.552-.018a.076.076,0,0,1,.064.12l-.321.449.188.519a.076.076,0,0,1-.094.1L177.4,585l-.436.34a.076.076,0,0,1-.122-.059" transform="translate(-146.305 -484.122)" fill="#f47458"/>
          <path id="Path_324242" data-name="Path 324242" d="M69.284,480.551l0-.552-.458-.31a.076.076,0,0,1,.018-.135l.524-.175.153-.531a.076.076,0,0,1,.134-.024l.328.444.552-.018a.076.076,0,0,1,.064.12l-.321.449.188.519a.076.076,0,0,1-.094.1l-.527-.166-.436.34a.076.076,0,0,1-.122-.059" transform="translate(-57.071 -397.232)" fill="#f47458"/>
        </g>
      </g>
      <g id="Group_31050" data-name="Group 31050" transform="translate(3079.762 -20143.898)">
        <g id="Group_31049" data-name="Group 31049" clip-path="url(#clip-path-3)">
          <path id="Path_324243" data-name="Path 324243" d="M784.789,486.01a12.512,12.512,0,0,1-3.353,1.2,75.329,75.329,0,0,1-11.644.232c-10.365-1.014-20.694-2.386-31.037-3.622a1.45,1.45,0,0,1-.928-.463c2.844-.175,5.687-.384,8.533-.52,10.3-.494,20.61-1.009,30.9.169a33.909,33.909,0,0,1,5.143,1.062,11.76,11.76,0,0,1,2.348,1.255q.018.341.036.681" transform="translate(-533.17 -348.515)" fill="#fcf0d0"/>
          <path id="Path_324244" data-name="Path 324244" d="M792.081,256.979c1.792-1.139,3.518-2.4,5.39-3.391,3.924-2.071,7.883-4.089,11.92-5.925a10.079,10.079,0,0,1,4.176-.613c1.3.015,1.8,1.071.953,2.041a8.736,8.736,0,0,1-3.313,2.582c-4.692,1.673-9.462,3.129-14.229,4.583-1.547.472-3.174.686-4.764,1.018l-.132-.3" transform="translate(-572.374 -178.522)" fill="#fcf0d0"/>
          <path id="Path_324245" data-name="Path 324245" d="M284.784,663.942c-2.292,4.157-4.428,8.41-6.911,12.449q-6.375,10.365-13.151,20.48a33.837,33.837,0,0,1-5.006,5.183c-.368.352-1.08.344-1.633.5-.107-.615-.46-1.318-.276-1.828a21.511,21.511,0,0,1,2.286-5.242q7.58-10.653,15.463-21.088c2.8-3.687,5.938-7.12,8.922-10.668l.305.212" transform="translate(-186.259 -479.625)" fill="#fcf0d0"/>
          <path id="Path_324246" data-name="Path 324246" d="M311.307,199.428c-.492-.565-.988-1.127-1.475-1.7-7.213-8.431-14.383-16.9-20.449-26.22a68.365,68.365,0,0,1-3.94-7.21,15.386,15.386,0,0,1-.809-3.243l.474-.479a8.015,8.015,0,0,1,2.419,1.192,41.313,41.313,0,0,1,5.486,6.317c5.5,8.788,10.789,17.709,16.127,26.6.888,1.478,1.627,3.045,2.435,4.571l-.268.17" transform="translate(-205.682 -116.038)" fill="#fcf0d0"/>
          <path id="Path_324247" data-name="Path 324247" d="M108.06,426.313c-7.888.285-15.777.785-23.665.784-6.131,0-12.267-.555-18.389-1.021a6.641,6.641,0,0,1-4.866-2.058c.845-1.506,2.287-1.717,3.6-1.792a66.445,66.445,0,0,1,10.352-.216c10.645,1.069,21.261,2.433,31.887,3.686.366.043.727.134,1.09.2q0,.207-.01.414" transform="translate(-44.18 -304.851)" fill="#fcf0d0"/>
          <path id="Path_324248" data-name="Path 324248" d="M187.341,224.465a13.576,13.576,0,0,1,3.187.9,72.5,72.5,0,0,1,8.957,5.5c9.558,7.457,18.961,15.114,28.423,22.695l-.336.493a2.485,2.485,0,0,1-.64-.195c-10.219-6.525-20.485-12.982-30.616-19.643a64.039,64.039,0,0,1-7.529-6.37,15.119,15.119,0,0,1-1.921-2.693l.475-.69" transform="translate(-135.033 -162.203)" fill="#fcf0d0"/>
          <path id="Path_324249" data-name="Path 324249" d="M492.633,636.635c.889,2.883,1.713,5.485,2.493,8.1,3.248,10.877,6.5,21.755,8.273,33a48.244,48.244,0,0,1,.459,5.9,12.475,12.475,0,0,1-.418,2.507l-.588.221a9.265,9.265,0,0,1-1.7-2.323c-1.235-3.8-2.714-7.577-3.365-11.486-1.952-11.733-3.558-23.523-5.295-35.292a3.074,3.074,0,0,1,.143-.622" transform="translate(-355.882 -460.046)" fill="#fcf0d0"/>
          <path id="Path_324250" data-name="Path 324250" d="M606.434,527.405c7.789,4.885,15.676,9.623,23.331,14.709,4.921,3.27,9.551,6.989,14.2,10.649a25.574,25.574,0,0,1,3.315,3.857l-.446.706a11.515,11.515,0,0,1-3.005-.668,73.263,73.263,0,0,1-7.516-4.382c-10.67-7.371-20.391-15.919-30.131-24.439l.253-.433" transform="translate(-438.039 -381.114)" fill="#fcf0d0"/>
          <path id="Path_324251" data-name="Path 324251" d="M677.912,326.072a15.067,15.067,0,0,1-3.01,2.224,88.681,88.681,0,0,1-11.385,4.24c-11.148,2.875-22.376,5.44-33.575,8.121-.083.02-.187-.046-.535-.141,3.539-1.441,6.869-2.835,10.228-4.157,10.208-4.019,20.4-8.1,31.136-10.553a33.907,33.907,0,0,1,4.886-.627,8.71,8.71,0,0,1,2.012.306l.243.587" transform="translate(-454.822 -234.976)" fill="#fcf0d0"/>
          <path id="Path_324252" data-name="Path 324252" d="M437.024,175.141c-.353-2.356-.816-4.7-1.038-7.071-.794-8.466-1.561-16.935-2.206-25.413a26.411,26.411,0,0,1,.435-5.732,13.7,13.7,0,0,1,1.034-2.784l.672-.038a11.923,11.923,0,0,1,1.4,2.8,46.464,46.464,0,0,1,1.009,6.993,195.827,195.827,0,0,1-1.3,31.246" transform="translate(-313.431 -96.906)" fill="#fcf0d0"/>
          <path id="Path_324253" data-name="Path 324253" d="M612.306,75.183c4-10.242,8.11-20.417,14.036-29.706a34.029,34.029,0,0,1,3.663-4.414c.313-.344.965-.379,1.46-.556.174.547.6,1.159.476,1.628a29.4,29.4,0,0,1-1.726,5.291C626.357,55.481,621.2,62.733,616.068,70c-1.231,1.744-2.507,3.457-3.762,5.184" transform="translate(-442.465 -29.271)" fill="#fcf0d0"/>
          <path id="Path_324254" data-name="Path 324254" d="M104.605,565.423c-3.129,1.976-6.187,4.076-9.4,5.9-6.333,3.6-12.735,7.072-19.153,10.515a18.151,18.151,0,0,1-3.886,1.289,10.968,10.968,0,0,1-2.263.024,12.567,12.567,0,0,1,1.948-2.323,46.247,46.247,0,0,1,6.542-4.079c8.458-3.9,17-7.609,25.513-11.387a4.38,4.38,0,0,1,.587-.171l.113.23" transform="translate(-50.513 -408.42)" fill="#fcf0d0"/>
          <path id="Path_324255" data-name="Path 324255" d="M391.681,45.644c-.515-1.6-1.05-3.2-1.542-4.8-2.729-8.915-5.561-17.808-6.867-27.077a39.467,39.467,0,0,1-.036-5.463l.686-.254a10.637,10.637,0,0,1,1.625,2.581c1.188,4.271,2.487,8.538,3.253,12.894,1.243,7.073,2.1,14.213,3.119,21.325a5.351,5.351,0,0,1,0,.746l-.24.05" transform="translate(-276.871 -5.815)" fill="#fcf0d0"/>
          <path id="Path_324256" data-name="Path 324256" d="M106.876,279.7c-10.728-2.105-21.454-4.132-31.724-7.948a28.579,28.579,0,0,1-3.715-1.75,9.553,9.553,0,0,1-1.548-1.324q.06-.25.12-.5a9.377,9.377,0,0,1,2.787-.17c4.516,1.117,9.091,2.1,13.473,3.631,6.676,2.327,13.212,5.059,19.8,7.626a7,7,0,0,1,.8.435" transform="translate(-50.503 -193.618)" fill="#fcf0d0"/>
          <path id="Path_324257" data-name="Path 324257" d="M234.98,356.876c-7.089-1.677-14.207-3.241-21.254-5.075-3.916-1.02-7.742-2.418-11.553-3.8a22.76,22.76,0,0,1-3.67-2.144l.222-.866a13.473,13.473,0,0,1,3.408.042c5.232,1.417,10.5,2.774,15.615,4.538,5.594,1.927,11.044,4.276,16.554,6.445.3.117.577.276.865.416l-.188.444" transform="translate(-143.442 -249.227)" fill="#fcf0d0"/>
          <path id="Path_324258" data-name="Path 324258" d="M633.179,479.721a14.513,14.513,0,0,1-3.406-.04c-4.143-1.03-8.331-1.982-12.347-3.4-6.67-2.354-13.22-5.045-19.819-7.6a1.283,1.283,0,0,1-.781-.7c2.691.564,5.406,1.032,8.067,1.711,7.122,1.819,14.237,3.67,21.317,5.641a33.752,33.752,0,0,1,5.431,2.334,9.37,9.37,0,0,1,1.7,1.361l-.157.7" transform="translate(-431.279 -338.17)" fill="#fcf0d0"/>
          <path id="Path_324259" data-name="Path 324259" d="M647.654,191.034c7.351-7.625,14.719-15.246,23.185-21.677a34.506,34.506,0,0,1,3.873-2.488,15.393,15.393,0,0,1,2.613-.835,11.754,11.754,0,0,1-.969,2.305,24.5,24.5,0,0,1-2.7,3.1c-7.961,7.45-16.976,13.514-26,19.6" transform="translate(-468.008 -119.98)" fill="#fcf0d0"/>
          <path id="Path_324260" data-name="Path 324260" d="M542.462,238.051c2.4-4.259,4.409-8.2,6.758-11.934,3.7-5.887,7.584-11.665,11.507-17.41a20.074,20.074,0,0,1,3.221-3.03l.644.4a11.266,11.266,0,0,1-.612,2.706,40.176,40.176,0,0,1-3.471,6.145c-5.681,7.6-11.5,15.088-17.272,22.614a5.026,5.026,0,0,1-.776.512" transform="translate(-391.994 -148.626)" fill="#fcf0d0"/>
          <path id="Path_324261" data-name="Path 324261" d="M419.925,457.737c-3.17,5.094-6.25,10.248-9.565,15.245a19.182,19.182,0,0,1-4.027,3.785,1.734,1.734,0,0,1-1.639.169,1.931,1.931,0,0,1-.542-1.7,18.406,18.406,0,0,1,2.086-4.394c3.685-5.159,8.4-9.343,13.111-13.514l.576.411" transform="translate(-292.014 -330.473)" fill="#fcf0d0"/>
          <path id="Path_324262" data-name="Path 324262" d="M355.352,364.647c-5.706-1.647-11.447-3.185-17.1-5a19.6,19.6,0,0,1-4.9-2.913,1.857,1.857,0,0,1-.578-1.681,1.96,1.96,0,0,1,1.57-.88,13.5,13.5,0,0,1,3.863.577c6.292,2.108,11.783,5.726,17.327,9.236l-.189.663" transform="translate(-240.441 -255.931)" fill="#fcf0d0"/>
          <path id="Path_324263" data-name="Path 324263" d="M336.241,475.886c-4.411,5.638-8.673,11.4-14.754,15.408a6.609,6.609,0,0,1-2.26.919c-1.443.3-2.15-.49-1.622-1.881a7.975,7.975,0,0,1,1.631-2.622c4.859-5.081,10.927-8.447,17-11.825" transform="translate(-229.382 -343.885)" fill="#fcf0d0"/>
          <path id="Path_324264" data-name="Path 324264" d="M478.59,283.775c.017-6.5.091-12.981,1.805-19.288a13.5,13.5,0,0,1,1.759-3.857c.867-1.305,2.114-1.1,2.5.416a10.236,10.236,0,0,1,.23,3.895c-.969,6.63-3.572,12.739-6.291,18.834" transform="translate(-345.839 -187.714)" fill="#fcf0d0"/>
          <path id="Path_324265" data-name="Path 324265" d="M339.964,429.223l5.38,2.2c-2.7.723-3.731.366-5.38-2.2" transform="translate(-245.665 -310.165)" fill="#fcf0d0"/>
          <path id="Path_324266" data-name="Path 324266" d="M514.291,553.346c1.623,5.6,4.354,15.169,4.347,15.177s4.859,13.885,6.72,18.384a12.729,12.729,0,0,0,2.1,2.692l.692-.366c-.031-5.993-13.709-35.94-13.855-35.886" transform="translate(-371.637 -399.859)" fill="#fcf0d0"/>
          <path id="Path_324267" data-name="Path 324267" d="M374.753,577.31c-2.62,12.078-5.408,24.045-9.955,35.495a58.8,58.8,0,0,1-3.84,7.43c-.343.6-1.253.872-1.9,1.3a6.277,6.277,0,0,1-.666-2.259,33.741,33.741,0,0,1,1.088-5.8c3.07-10.342,7.66-20.07,12.213-29.809,1-2.129,2.039-4.234,3.061-6.35" transform="translate(-258.974 -417.176)" fill="#50bfa5"/>
          <path id="Path_324268" data-name="Path 324268" d="M205.99,131.725c-5.806-7-11.729-13.916-17.371-21.05-2.916-3.686-5.4-7.725-7.94-11.69a19.65,19.65,0,0,1-1.737-4.239c-.139-.4-.046-1.223.188-1.334a1.745,1.745,0,0,1,1.491.1,14.035,14.035,0,0,1,3.019,2.5,102.224,102.224,0,0,1,7.07,9.282c5.438,8.55,10.649,17.244,15.951,25.881l-.67.549" transform="translate(-129.259 -67.413)" fill="#50bfa5"/>
          <path id="Path_324269" data-name="Path 324269" d="M523,167.518c2.668-11.941,5.462-23.849,9.935-35.266.975-2.489,2.317-4.837,3.541-7.223a5.046,5.046,0,0,1,1.149-1.385c.938-.839,1.613-.631,1.771.637a7.415,7.415,0,0,1-.116,3.1c-1.918,5.938-3.656,11.959-6.015,17.724-3.03,7.4-6.588,14.592-9.923,21.872a4.791,4.791,0,0,1-.343.547" transform="translate(-377.931 -88.984)" fill="#50bfa5"/>
          <path id="Path_324270" data-name="Path 324270" d="M627.077,433.782c13.781-.916,27.519-2.2,41.261-.277a23.073,23.073,0,0,1,4.412,1.254,1.75,1.75,0,0,1,.968,1.135c.048.253-.57.833-.973.938a23.486,23.486,0,0,1-4.49.9c-8.1.476-16.129-.476-24.146-1.441-5.232-.63-10.441-1.448-15.659-2.192-.464-.066-.916-.212-1.373-.321" transform="translate(-453.139 -312.536)" fill="#50bfa5"/>
          <path id="Path_324271" data-name="Path 324271" d="M688.805,57.355a13,13,0,0,1-.965,3.152,65.239,65.239,0,0,1-5.718,8.625c-7.894,9.209-15.993,18.241-24.019,27.338-.124.141-.293.242-.724.13,4.773-7.082,9.423-14.251,14.362-21.214,3.394-4.783,7.146-9.317,10.835-13.884a27.484,27.484,0,0,1,3.71-3.489,10.363,10.363,0,0,1,1.934-1.05l.584.393" transform="translate(-475.036 -41.162)" fill="#50bfa5"/>
          <path id="Path_324272" data-name="Path 324272" d="M87.255,196.483c-12.3-7.09-24.278-13.777-35.217-22.108a51.651,51.651,0,0,1-4.885-4.4,11.364,11.364,0,0,1-1.412-2.233l.33-.522a13.378,13.378,0,0,1,2.889.614,42.877,42.877,0,0,1,5.528,2.893c11.526,7.4,21.955,16.231,32.36,25.086a4.792,4.792,0,0,1,.408.666" transform="translate(-33.053 -120.84)" fill="#50bfa5"/>
          <path id="Path_324273" data-name="Path 324273" d="M480.237,43.633a17.634,17.634,0,0,1,.652,4.327,145.8,145.8,0,0,1-1.935,15.323c-1.978,9.611-4.365,19.138-6.587,28.7a1.5,1.5,0,0,1-.619.97c.242-3.383.362-6.779.749-10.145,1.146-9.967,2.326-19.932,3.658-29.876a42.682,42.682,0,0,1,1.973-7.115,11.635,11.635,0,0,1,1.28-2.215l.83.032" transform="translate(-340.894 -31.507)" fill="#50bfa5"/>
          <path id="Path_324274" data-name="Path 324274" d="M141.943,597a10.627,10.627,0,0,1,1.364-2.279,44.334,44.334,0,0,1,4.767-4.283c10.869-8.074,22.694-14.6,34.511-21.13.079-.044.2-.006.491-.006a2.549,2.549,0,0,1-.34.484c-9.995,8.244-19.988,16.5-30.933,23.482a65.107,65.107,0,0,1-6.509,3.514,14.888,14.888,0,0,1-2.92.767l-.431-.549" transform="translate(-102.571 -411.376)" fill="#50bfa5"/>
          <path id="Path_324275" data-name="Path 324275" d="M184.912,479.365c-7.871,3.042-15.672,6.288-23.636,9.062-6.41,2.232-13,3.97-19.556,5.748-1.481.4-3.163.059-4.752.059l-.205-.548a10.285,10.285,0,0,1,1.951-1.792,44.038,44.038,0,0,1,5.811-2.694c13.116-4.661,26.727-7.385,40.291-10.282l.1.447" transform="translate(-98.827 -346.076)" fill="#50bfa5"/>
          <path id="Path_324276" data-name="Path 324276" d="M683.876,231.585a9.328,9.328,0,0,1-1.716,2.166,75.71,75.71,0,0,1-7.642,4.824c-11.266,5.875-23.1,10.441-34.948,14.972a2.494,2.494,0,0,1-.582.048c.149-.187.211-.327.318-.387,10.784-6.125,21.531-12.319,32.39-18.31a58.086,58.086,0,0,1,8.7-3.441,14.707,14.707,0,0,1,3.142-.412l.339.542" transform="translate(-461.745 -166.956)" fill="#50bfa5"/>
          <path id="Path_324277" data-name="Path 324277" d="M70.758,373.322a11.45,11.45,0,0,1-1.268.119c-12.4-.166-24.81-.269-37.212-.568a49.638,49.638,0,0,1-8.279-1.3,16.225,16.225,0,0,1-2.959-1.2q-.022-.322-.044-.643a8.485,8.485,0,0,1,2.527-1.014,73.994,73.994,0,0,1,11.166-.227c12.059,1.223,24.086,2.753,36.126,4.165q-.029.337-.058.674" transform="translate(-15.173 -266.164)" fill="#50bfa5"/>
          <path id="Path_324278" data-name="Path 324278" d="M422.8,646.437c-.313,9.206-.458,18.422-1,27.615-.342,5.793-1.152,11.569-2,17.316-.415,2.806-.008,2.561-3.482,2.375a12.766,12.766,0,0,1-.2-2.333c.662-7.371,1.134-14.771,2.134-22.1.994-7.278,2.53-14.483,3.839-21.718a11.178,11.178,0,0,1,.359-1.212l.358.055" transform="translate(-300.677 -467.089)" fill="#50bfa5"/>
          <path id="Path_324279" data-name="Path 324279" d="M749.665,370.974c8.354-2.347,16.682-4.763,25.424-4.925a20.675,20.675,0,0,1,4.687.647,1.773,1.773,0,0,1,1.186,1.143,1.828,1.828,0,0,1-.913,1.4,14.33,14.33,0,0,1-3.671,1.351c-8.868,1.607-17.784.939-26.712.384" transform="translate(-541.723 -264.514)" fill="#50bfa5"/>
          <path id="Path_324280" data-name="Path 324280" d="M648.469,615.459c7.656,7.932,15.426,15.771,21.648,24.936a46.746,46.746,0,0,1,2.533,4.814l-.541.524a7.442,7.442,0,0,1-1.9-.893,37.966,37.966,0,0,1-3.868-3.791c-6.76-7.956-12.351-16.74-17.876-25.59" transform="translate(-468.597 -444.743)" fill="#50bfa5"/>
          <path id="Path_324281" data-name="Path 324281" d="M590.532,682.739c5.036,9.676,10.059,19.31,13.406,29.683a29.622,29.622,0,0,1,.924,4.168,8.463,8.463,0,0,1-.092,1.874l-.5.258a12.56,12.56,0,0,1-2-2.37,75.76,75.76,0,0,1-4.027-8.994c-2.657-7.9-5.065-15.88-7.568-23.83a6.162,6.162,0,0,1-.144-.789" transform="translate(-426.731 -493.361)" fill="#50bfa5"/>
          <path id="Path_324282" data-name="Path 324282" d="M340.663,538.957q-3.911,6.618-7.825,13.236c-1.805,3.042-3.5,6.158-5.481,9.084-1.836,2.716-3.942,5.255-6.015,7.8a10.855,10.855,0,0,1-2.122,1.6l-.432-.283a7.948,7.948,0,0,1,.273-1.971,27.935,27.935,0,0,1,1.9-4c5.585-9.228,12.509-17.453,19.3-25.78l.4.312" transform="translate(-230.363 -389.236)" fill="#50bfa5"/>
          <path id="Path_324283" data-name="Path 324283" d="M295.364,34.312A13.741,13.741,0,0,1,297.491,37c1.706,3.793,3.477,7.583,4.807,11.516,2.419,7.156,4.54,14.412,6.456,21.788a1.685,1.685,0,0,1-.32-.367c-4.046-9.054-8.175-18.073-12.061-27.2-.967-2.269-1.156-4.871-1.674-7.326a2.114,2.114,0,0,1,.156-.783l.51-.316" transform="translate(-212.947 -24.795)" fill="#50bfa5"/>
          <path id="Path_324284" data-name="Path 324284" d="M750.193,570.013a14.635,14.635,0,0,1-3.953-.051c-6.355-1.856-12.707-3.745-18.969-5.89a118.254,118.254,0,0,1-13.618-5.776c3.666.785,7.371,1.424,10.99,2.388q10.629,2.832,21.168,6a26.611,26.611,0,0,1,4.643,2.445l-.26.883" transform="translate(-515.7 -403.436)" fill="#50bfa5"/>
          <path id="Path_324285" data-name="Path 324285" d="M38.162,496.2c-4.143.631-8.27,1.4-12.432,1.862-6.419.712-12.859,1.249-19.3,1.774a19.717,19.717,0,0,1-4.094-.265A13.887,13.887,0,0,1,.088,498.9q-.044-.311-.088-.622a13.129,13.129,0,0,1,3.166-1.262c4.234-.512,8.484-1.079,12.739-1.193,7.121-.192,14.251-.054,21.377-.047a6.834,6.834,0,0,1,.873.11l.007.318" transform="translate(0 -358.216)" fill="#50bfa5"/>
          <path id="Path_324286" data-name="Path 324286" d="M210.956,666q-2.1,3.1-4.194,6.2c-4.79,7.106-9.64,14.171-15.559,20.409A44.555,44.555,0,0,1,187.178,696l-.705-.476a11.519,11.519,0,0,1,.9-2.738,50.614,50.614,0,0,1,4.528-6.461c5.234-5.92,10.628-11.7,15.962-17.532.924-1.01,1.863-2.007,2.8-3.01l.292.226" transform="translate(-134.749 -481.106)" fill="#50bfa5"/>
          <path id="Path_324287" data-name="Path 324287" d="M390.165,212.288c-5.038-10.5-10.414-20.785-13.22-32.111a23.337,23.337,0,0,1-.33-3.641l.6-.29a10.261,10.261,0,0,1,1.83,2.043,50.439,50.439,0,0,1,3.291,7.345c2.715,8.692,5.232,17.446,7.819,26.179a1.741,1.741,0,0,1,.006.475" transform="translate(-272.149 -127.359)" fill="#50bfa5"/>
          <path id="Path_324288" data-name="Path 324288" d="M527.768,445.333c1.438.851,2.945,1.6,4.3,2.572,3.872,2.766,7.722,5.566,11.487,8.474a9.618,9.618,0,0,1,2.3,2.955,2.269,2.269,0,0,1,.07,2.05,2.323,2.323,0,0,1-2.088.2,12.569,12.569,0,0,1-3.646-2.153c-2.647-2.455-5.2-5.022-7.656-7.67-1.795-1.936-3.374-4.073-5.049-6.12l.279-.313" transform="translate(-381.174 -321.807)" fill="#50bfa5"/>
          <path id="Path_324289" data-name="Path 324289" d="M536.507,345.481c4.415-4.154,8.762-8.384,13.289-12.413a18.156,18.156,0,0,1,4.731-2.54,1.728,1.728,0,0,1,1.624.293,1.943,1.943,0,0,1,.076,1.784,16.725,16.725,0,0,1-2.911,3.5c-4.931,4.16-10.653,7.04-16.354,9.938l-.455-.56" transform="translate(-387.691 -238.784)" fill="#50bfa5"/>
          <path id="Path_324290" data-name="Path 324290" d="M398.792,333.352c-4.844-3.9-9.444-7.981-13.075-12.987a17.908,17.908,0,0,1-2.375-4.645c-.533-1.549.578-2.487,1.985-1.661a11.843,11.843,0,0,1,3.817,3.269c2.742,4.029,5.244,8.224,7.79,12.385.708,1.158,1.242,2.423,1.857,3.639" transform="translate(-276.913 -226.724)" fill="#50bfa5"/>
          <path id="Path_324291" data-name="Path 324291" d="M485.367,505.678c2.242,6.5,4.656,12.958,5.091,19.926a9.187,9.187,0,0,1-.363,3.077c-.432,1.487-1.6,1.707-2.524.447a7.138,7.138,0,0,1-1.362-2.942,99.354,99.354,0,0,1-1.215-9.929c-.2-3.5-.046-7.011-.046-10.518l.418-.062" transform="translate(-350.392 -365.413)" fill="#50bfa5"/>
          <path id="Path_324292" data-name="Path 324292" d="M288.2,417.215h0c-.527-.155-1.053-.3-1.584-.414a62.464,62.464,0,0,0-8.385-1.369,1.409,1.409,0,0,0-.352.017,1.893,1.893,0,0,0-.627,3.463,1.55,1.55,0,0,0,.329.146,72.818,72.818,0,0,0,7.843,1.841l.007,0c8.319,2.079,13.951.551,13.951.551-3.15-2.04-11.18-4.238-11.18-4.238" transform="translate(-199.702 -300.197)" fill="#50bfa5"/>
          <path id="Path_324293" data-name="Path 324293" d="M531.683.638s-1.343-1.435-1.978,0c-.613,1.383-4.187,4.813-8.07,21.681l-.01,0c-.141.647-.281,1.287-.422,1.932h0L516.737,44.7a1.518,1.518,0,0,0,.819-.868c2.4-5.74,4.826-11.469,7.182-17.227l.034-.072s5.659-13.544,6.109-17.763h0c.722-2.648,1.34-5.313.8-8.136" transform="translate(-373.405 0)" fill="#fcf0d0"/>
          <path id="Path_324294" data-name="Path 324294" d="M586.255,595.974a52.833,52.833,0,0,0-3.183-6.831,161.1,161.1,0,0,0-13.381-18.335h0l-.034-.041q-2.228-2.719-4.487-5.414a1.464,1.464,0,0,0-.255-.23l-.535-.637.006-.008-4.6-5.442c.182.543.384,1.073.6,1.591l0,0,.009.016c.527,1.264,3.964,7.559,4.6,8.722l.013.025h0c.91,1.66,1.833,3.311,2.851,4.9q6.344,9.9,12.935,19.639a17.105,17.105,0,0,0,3.549,3.39c.425.344,1.2.255,1.819.364.042-.575.293-1.239.092-1.71" transform="translate(-404.514 -403.972)" fill="#fcf0d0"/>
          <path id="Path_324295" data-name="Path 324295" d="M868.48,552.419a2.989,2.989,0,1,1-2.989-2.989,2.989,2.989,0,0,1,2.989,2.989" transform="translate(-623.262 -397.029)" fill="#f7cc7f"/>
          <path id="Path_324296" data-name="Path 324296" d="M842.669,430.124a1.925,1.925,0,1,1,0-2.722,1.925,1.925,0,0,1,0,2.722" transform="translate(-606.555 -308.442)" fill="#f7cc7f"/>
          <path id="Path_324297" data-name="Path 324297" d="M513.084,345.517a1.925,1.925,0,1,1,0-2.722,1.925,1.925,0,0,1,0,2.722" transform="translate(-368.391 -247.304)" fill="#f7cc7f"/>
          <path id="Path_324298" data-name="Path 324298" d="M280.98,523.752a1.925,1.925,0,1,1,0-2.722,1.925,1.925,0,0,1,0,2.722" transform="translate(-200.668 -376.1)" fill="#f7cc7f"/>
          <path id="Path_324299" data-name="Path 324299" d="M235.119,398.245a1.925,1.925,0,1,1,0-2.722,1.924,1.924,0,0,1,0,2.722" transform="translate(-167.528 -285.406)" fill="#f7cc7f"/>
          <path id="Path_324300" data-name="Path 324300" d="M341.746,196.378a1.925,1.925,0,1,1,0-2.722,1.925,1.925,0,0,1,0,2.722" transform="translate(-244.578 -139.533)" fill="#f7cc7f"/>
          <path id="Path_324301" data-name="Path 324301" d="M611.653,67.621a1.925,1.925,0,1,1,0-2.722,1.925,1.925,0,0,1,0,2.722" transform="translate(-439.618 -46.49)" fill="#f7cc7f"/>
          <path id="Path_324302" data-name="Path 324302" d="M128.8,335.722a1.925,1.925,0,1,1,0-2.722,1.925,1.925,0,0,1,0,2.722" transform="translate(-90.702 -240.225)" fill="#f7cc7f"/>
          <path id="Path_324303" data-name="Path 324303" d="M852.473,334.362a1.925,1.925,0,1,1-1.925-1.925,1.925,1.925,0,0,1,1.925,1.925" transform="translate(-613.232 -240.226)" fill="#f7cc7f"/>
          <path id="Path_324304" data-name="Path 324304" d="M670.236,396.885a1.925,1.925,0,1,1-1.925-1.925,1.925,1.925,0,0,1,1.925,1.925" transform="translate(-481.544 -285.406)" fill="#f7cc7f"/>
          <path id="Path_324305" data-name="Path 324305" d="M619.155,284.133a1.925,1.925,0,1,1-1.925-1.925,1.925,1.925,0,0,1,1.925,1.925" transform="translate(-444.632 -203.929)" fill="#f7cc7f"/>
          <path id="Path_324306" data-name="Path 324306" d="M793.441,130.328a2.426,2.426,0,1,1-2.426-2.427,2.426,2.426,0,0,1,2.426,2.427" transform="translate(-569.851 -92.424)" fill="#f7cc7f"/>
          <path id="Path_324307" data-name="Path 324307" d="M594.072,195.562a1.716,1.716,0,1,1-1.716-1.716,1.716,1.716,0,0,1,1.716,1.716" transform="translate(-426.809 -140.077)" fill="#f7cc7f"/>
          <path id="Path_324308" data-name="Path 324308" d="M502.264,206.629a1.716,1.716,0,1,1-1.716-1.716,1.715,1.715,0,0,1,1.716,1.716" transform="translate(-360.467 -148.074)" fill="#f7cc7f"/>
          <path id="Path_324309" data-name="Path 324309" d="M502.264,15.586a1.716,1.716,0,1,1-1.716-1.716,1.716,1.716,0,0,1,1.716,1.716" transform="translate(-360.467 -10.023)" fill="#f7cc7f"/>
          <path id="Path_324310" data-name="Path 324310" d="M165.423,64.548a2.582,2.582,0,1,1-2.582-2.582,2.582,2.582,0,0,1,2.582,2.582" transform="translate(-115.806 -44.778)" fill="#f7cc7f"/>
          <path id="Path_324311" data-name="Path 324311" d="M41.6,253.041a2.582,2.582,0,1,1-2.582-2.582,2.582,2.582,0,0,1,2.582,2.582" transform="translate(-26.327 -180.987)" fill="#f7cc7f"/>
          <path id="Path_324312" data-name="Path 324312" d="M106.655,540.052a2.582,2.582,0,1,1-2.582-2.582,2.582,2.582,0,0,1,2.582,2.582" transform="translate(-73.339 -388.387)" fill="#f7cc7f"/>
          <path id="Path_324313" data-name="Path 324313" d="M116.43,698.5a2.582,2.582,0,1,1-2.582-2.582,2.582,2.582,0,0,1,2.582,2.582" transform="translate(-80.403 -502.883)" fill="#f7cc7f"/>
          <path id="Path_324314" data-name="Path 324314" d="M335.819,791.164a2.582,2.582,0,1,1-2.582-2.582,2.582,2.582,0,0,1,2.582,2.582" transform="translate(-238.938 -569.846)" fill="#f7cc7f"/>
          <path id="Path_324315" data-name="Path 324315" d="M456.995,618.518a2.582,2.582,0,1,1-2.582-2.582,2.582,2.582,0,0,1,2.582,2.582" transform="translate(-326.502 -445.088)" fill="#f7cc7f"/>
          <path id="Path_324316" data-name="Path 324316" d="M696.995,766.384a2.582,2.582,0,1,1-2.582-2.582,2.582,2.582,0,0,1,2.582,2.582" transform="translate(-499.931 -551.939)" fill="#f7cc7f"/>
          <path id="Path_324317" data-name="Path 324317" d="M811.247,674.965a2.582,2.582,0,1,1-2.582-2.582,2.582,2.582,0,0,1,2.582,2.582" transform="translate(-582.492 -485.878)" fill="#f7cc7f"/>
          <path id="Path_324318" data-name="Path 324318" d="M466.3,420.112a2.582,2.582,0,1,1-2.582-2.582,2.582,2.582,0,0,1,2.582,2.582" transform="translate(-333.229 -301.716)" fill="#f7cc7f"/>
        </g>
      </g>
    </g>
  </g>
</svg>
